<svg width="276" height="299" viewBox="0 0 276 299" fill="none" xmlns="http://www.w3.org/2000/svg">
<g clip-path="url(#clip0_2_6)">
<path d="M193.425 130.926C210.012 130.926 223.458 117.451 223.458 100.83C223.458 84.2077 210.012 70.733 193.425 70.733C176.839 70.733 163.393 84.2077 163.393 100.83C163.393 117.451 176.839 130.926 193.425 130.926Z" fill="#FF6584"/>
<path d="M275.807 123.269C275.873 123.257 275.923 123.211 276 123.223C275.966 123.092 275.922 122.965 275.868 122.842C275.773 122.972 275.675 123.105 275.59 123.222L275.807 123.269Z" fill="white"/>
<path d="M74.3722 172.062C74.5476 178.628 75.6452 185.137 77.6325 191.397C77.678 191.542 77.7256 191.685 77.7732 191.83H89.9403C89.9273 191.7 89.9143 191.555 89.9013 191.397C89.0901 182.05 84.4127 125.166 90.0052 115.438C89.5163 116.227 73.429 142.365 74.3722 172.062Z" fill="#E6E6E6"/>
<path d="M75.2852 191.397C75.3869 191.542 75.4929 191.687 75.6011 191.83H84.7286C84.6593 191.707 84.5793 191.561 84.4863 191.397C82.9784 188.669 78.5152 180.515 74.3722 172.062C69.9199 162.978 65.8353 153.549 66.1793 150.137C66.0733 150.907 62.9926 174.369 75.2852 191.397Z" fill="#E6E6E6"/>
<path d="M170.133 192.96C169.98 198.685 169.023 204.359 167.291 209.816C167.251 209.943 167.21 210.068 167.168 210.194H156.561C156.572 210.081 156.583 209.954 156.594 209.816C157.302 201.668 161.38 152.075 156.504 143.594C156.93 144.282 170.955 167.069 170.133 192.96Z" fill="#E6E6E6"/>
<path d="M169.337 209.816C169.248 209.943 169.156 210.069 169.062 210.194H161.104C161.165 210.086 161.234 209.96 161.315 209.816C162.63 207.438 166.521 200.33 170.133 192.96C174.015 185.041 177.576 176.82 177.276 173.845C177.368 174.516 180.054 194.971 169.337 209.816Z" fill="#E6E6E6"/>
<path d="M48.849 24.4288L53.7957 20.464C49.9528 20.0391 48.3739 22.1394 47.7276 23.8018C44.7254 22.5525 41.4572 24.1897 41.4572 24.1897L51.3546 27.7905C50.8553 26.454 49.9861 25.2879 48.849 24.4288Z" fill="#3F3D56"/>
<path d="M197.84 4.02035L202.787 0.0555258C198.944 -0.369349 197.365 1.73093 196.719 3.39331C193.717 2.14403 190.448 3.78127 190.448 3.78127L200.346 7.38203C199.846 6.04555 198.977 4.87941 197.84 4.02035Z" fill="#3F3D56"/>
<path d="M270.622 160.811C270.622 164.096 270.508 167.354 270.279 170.586C268.517 196.08 259.696 220.578 244.807 241.325C242.861 244.046 240.818 246.691 238.677 249.26C233.131 255.926 226.974 262.055 220.286 267.568L190.968 250.328L173.439 209.329C173.439 209.329 199.593 156.262 270.576 157.224C270.605 158.416 270.621 159.611 270.622 160.811Z" fill="#3F3D56"/>
<path d="M270.279 170.586C268.931 189.637 263.656 208.201 254.789 225.107C245.921 242.013 233.653 256.894 218.758 268.81L191.522 252.796L175.977 216.434C175.977 216.434 201.166 165.325 270.279 170.586Z" fill="#02B598"/>
<path d="M244.807 241.325C242.861 244.046 240.818 246.691 238.677 249.26C224.335 266.528 206.01 280.033 185.287 288.606C181.091 290.34 176.796 291.869 172.402 293.193C140.678 301.647 107.068 299.509 76.6656 287.101C46.5977 273.653 22.2997 249.901 8.13596 220.113C6.23248 216.103 4.52075 211.991 3.00078 207.778C29.5099 188.317 81.7458 160.45 138.677 187.529C154.425 195.019 168.487 201.846 180.862 208.011C212.266 223.61 233.166 234.856 244.807 241.325Z" fill="#3F3D56"/>
<path d="M238.677 249.26C223.852 267.066 204.796 280.849 183.263 289.342C161.73 297.835 138.412 300.765 115.453 297.863C92.4946 294.96 70.6329 286.318 51.8797 272.732C33.1265 259.145 18.0839 241.051 8.13596 220.113C30.2756 202.568 81.3397 171.039 137.378 197.689C151.79 204.544 164.656 210.792 175.977 216.434C208.979 232.826 229.308 243.966 238.677 249.26Z" fill="#02B598"/>
<path d="M199.601 281.692C194.965 284.268 190.186 286.576 185.287 288.606C168.616 295.491 150.756 299.022 132.725 299C111.389 298.992 90.3455 294.026 71.247 284.494C52.1485 274.962 35.5151 261.123 22.6532 244.063C55.5877 240.583 146.625 235.891 199.601 281.692Z" fill="#3F3D56"/>
<path d="M185.287 288.606C159.436 299.258 130.968 301.795 103.647 295.882C76.3266 289.97 51.4405 275.885 32.2806 255.491C44.2598 253.728 138.309 241.617 185.287 288.606Z" fill="#02B598"/>
<path d="M247.493 84.1789V84.1832C149.028 11.2268 36.2145 62.5773 35.3431 62.9715V62.9673C48.1299 50.1549 63.3133 39.9962 80.0236 33.0729C96.734 26.1497 114.643 22.5979 132.725 22.6211C180.596 22.621 222.769 47.067 247.493 84.1789Z" fill="#E6E6E6"/>
<path d="M43.2406 163.489C59.8977 160.48 68.4333 130.429 62.3055 96.3702C56.1777 62.3108 37.7069 37.1401 21.0498 40.1497C4.39274 43.1593 -4.14294 73.2096 1.98487 107.269C8.11267 141.328 26.5835 166.499 43.2406 163.489Z" fill="#3F3D56"/>
<path d="M47.5214 203.266C46.5339 128.455 21.5561 58.2494 21.304 57.5496L19.0261 58.373C19.277 59.0695 44.1177 128.907 45.1 203.299L47.5214 203.266Z" fill="#02B598"/>
<path d="M3.20599 93.3563L2.46072 95.6657L32.364 105.357L33.1092 103.047L3.20599 93.3563Z" fill="#02B598"/>
<path d="M59.4566 90.7549L34.8183 110.309L36.322 112.212L60.9603 92.6576L59.4566 90.7549Z" fill="#02B598"/>
<path d="M123.334 152.704C141.649 152.704 156.497 122.345 156.497 84.8956C156.497 47.446 141.649 17.0871 123.334 17.0871C105.019 17.0871 90.1717 47.446 90.1717 84.8956C90.1717 122.345 105.019 152.704 123.334 152.704Z" fill="#3F3D56"/>
<path d="M120.272 195.887C133.554 116.029 120.405 36.4594 120.271 35.6656L117.688 36.1042C117.821 36.8941 130.894 116.046 117.687 195.456L120.272 195.887Z" fill="#02B598"/>
<path d="M94.1376 70.3147L92.9015 72.6306L122.889 88.7046L124.126 86.3887L94.1376 70.3147Z" fill="#02B598"/>
<path d="M154.539 78.3666L124.554 94.4498L125.791 96.7654L155.775 80.6822L154.539 78.3666Z" fill="#02B598"/>
<path d="M267.382 130.892C255.214 124.046 242.502 118.222 229.376 113.478C156.794 87.1589 84.821 97.3027 56.6494 134.97C78.5733 88.8248 156.802 74.3149 235.746 102.94C244.934 106.269 253.926 110.119 262.678 114.47C264.585 119.841 266.156 125.326 267.382 130.892Z" fill="#E6E6E6"/>
<path d="M169.355 56.6356L174.302 52.6708C170.459 52.2459 168.88 54.3462 168.234 56.0086C165.232 54.7593 161.963 56.3965 161.963 56.3965L171.861 59.9973C171.362 58.6608 170.492 57.4946 169.355 56.6356Z" fill="#3F3D56"/>
</g>
<defs>
<clipPath id="clip0_2_6">
<rect width="276" height="299" fill="white"/>
</clipPath>
</defs>
</svg>
